<?xml version="1.0" standalone="no"?><!DOCTYPE svg PUBLIC "-//W3C//DTD SVG 1.1//EN" "http://www.w3.org/Graphics/SVG/1.1/DTD/svg11.dtd"><svg t="1711713356538" class="icon" viewBox="0 0 1024 1024" version="1.1" xmlns="http://www.w3.org/2000/svg" p-id="4426" width="64" height="64" xmlns:xlink="http://www.w3.org/1999/xlink"><path d="M320.533333 460.266667H394.666667c50.026667 0 88.426667 17.653333 88.426666 71.04 0 51.573333-38.72 74.666667-87.2 74.666666h-30.186666v80H320.533333z m72.266667 110.08c31.146667 0 46.08-13.12 46.08-39.04s-16.48-35.04-47.573333-35.04h-25.6v74.08zM523.946667 460.266667h45.173333V549.333333h85.333333V460.266667h44.853334v225.973333h-44.853334v-97.6h-85.333333v97.6h-45.173333z" fill="#4D4D4D" p-id="4427"></path><path d="M512 86.506667c44.853333 58.666667 155.68 211.733333 231.36 381.653333a266.186667 266.186667 0 0 1 24.16 108.906667 262.453333 262.453333 0 0 1-2.773333 37.813333c-7.893333 54.08-39.2 105.28-88.053334 144-47.68 37.866667-107.2 59.573333-163.413333 59.573333h-2.56c-56.213333 0-115.733333-21.706667-163.413333-59.573333-48.853333-38.826667-80-90.026667-88.053334-144a262.453333 262.453333 0 0 1-2.773333-37.813333 266.186667 266.186667 0 0 1 24.16-108.906667C356.32 298.24 467.146667 145.28 512 86.506667m0-44.586667a43.573333 43.573333 0 0 0-33.173333 17.813333C416 141.76 313.226667 290.08 241.653333 450.826667a301.12 301.12 0 0 0-24.64 170.24c20 136.64 158.773333 240 293.706667 240h2.56c134.933333 0 273.706667-103.52 293.706667-240a301.12 301.12 0 0 0-24.64-170.24C710.773333 290.08 608 141.76 545.226667 59.733333A43.573333 43.573333 0 0 0 512 41.92zM824.746667 972.853333c-46.08 0-69.92-16-90.986667-30.293333-19.093333-12.853333-34.186667-23.04-67.2-23.04s-48 10.186667-67.146667 23.04c-21.333333 14.186667-44.96 30.293333-91.04 30.293333s-69.92-16-90.986666-30.293333c-19.093333-12.853333-34.186667-23.04-67.2-23.04s-48 10.186667-67.146667 23.04c-21.333333 14.186667-44.96 30.293333-91.04 30.293333a21.333333 21.333333 0 0 1 0-42.666666c33.013333 0 48-10.133333 67.146667-22.986667 21.333333-14.24 44.96-30.346667 91.04-30.346667s69.973333 16 91.04 30.346667c19.093333 12.853333 34.133333 22.986667 67.146666 22.986667s48-10.133333 67.2-22.986667c21.333333-14.24 44.96-30.346667 90.986667-30.346667s69.973333 16 91.04 30.346667c19.04 12.853333 34.133333 22.986667 67.146667 22.986667a21.333333 21.333333 0 0 1 0 42.666666z" fill="#4D4D4D" p-id="4428"></path></svg>