<?xml version="1.0" standalone="no"?><!DOCTYPE svg PUBLIC "-//W3C//DTD SVG 1.1//EN" "http://www.w3.org/Graphics/SVG/1.1/DTD/svg11.dtd"><svg t="1712718980817" class="icon" viewBox="0 0 1024 1024" version="1.1" xmlns="http://www.w3.org/2000/svg" p-id="4592" xmlns:xlink="http://www.w3.org/1999/xlink" width="64" height="64"><path d="M512 98.698795a413.301205 413.301205 0 1 0 413.301205 413.301205 413.301205 413.301205 0 0 0-413.301205-413.301205z m0 764.915663a351.614458 351.614458 0 1 1 351.614458-351.614458 351.984578 351.984578 0 0 1-351.614458 351.614458z" p-id="4593"></path><path d="M332.738313 579.855422h51.816868V473.815904L452.040482 579.855422h45.339759V369.01012h-51.816868v106.039519L378.016386 369.01012h-45.278073V579.855422zM591.822651 496.331566h55.024578V579.855422h51.878554V369.01012h-51.878554v81.118073h-55.024578V369.01012h-51.878555V579.855422h51.878555V496.331566z" p-id="4594"></path><path d="M314.60241 308.433735m-24.674699 0a24.674699 24.674699 0 1 0 49.349397 0 24.674699 24.674699 0 1 0-49.349397 0Z" p-id="4595"></path><path d="M265.253012 524.337349m-24.674699 0a24.674699 24.674699 0 1 0 49.349398 0 24.674699 24.674699 0 1 0-49.349398 0Z" p-id="4596"></path><path d="M493.493976 259.084337m-24.674699 0a24.674699 24.674699 0 1 0 49.349398 0 24.674699 24.674699 0 1 0-49.349398 0Z" p-id="4597"></path><path d="M503.240482 642.46747C480.786506 651.473735 459.566265 660.048193 431.807229 660.048193a215.22506 215.22506 0 0 1-101.289639-28.06747l-19.554698 31.398554A249.276145 249.276145 0 0 0 431.807229 697.060241c34.914699 0 61.686747-10.795181 85.251084-20.29494 21.343614-8.574458 41.515181-16.717108 66.498314-16.717108a200.666988 200.666988 0 0 1 109.432289 33.927711l20.48-30.843374A238.727711 238.727711 0 0 0 583.556627 623.036145c-32.138795 0-56.628434 9.86988-80.316145 19.431325z" p-id="4598"></path><path d="M503.240482 710.322892C480.786506 719.329157 459.566265 727.903614 431.807229 727.903614a215.22506 215.22506 0 0 1-101.289639-28.067469l-19.554698 31.398554A249.276145 249.276145 0 0 0 431.807229 764.915663c34.914699 0 61.686747-10.795181 85.251084-20.29494 21.343614-8.574458 41.515181-16.717108 66.498314-16.717109a200.666988 200.666988 0 0 1 109.432289 33.927711l20.48-30.843373A238.727711 238.727711 0 0 0 583.556627 690.891566c-32.138795 0-56.628434 9.86988-80.316145 19.431326zM400.963855 339.277108h12.33735v-18.506024h18.506024v-12.337349h-18.506024v-18.506024h-12.33735v18.506024h-18.506024v12.337349h18.506024v18.506024zM672.385542 339.277108h12.33735v-18.506024h18.506024v-12.337349h-18.506024v-18.506024h-12.33735v18.506024h-18.506024v12.337349h18.506024v18.506024zM795.759036 542.843373h-18.506024v-18.506024h-12.337349v18.506024h-18.506024v12.33735h18.506024v18.506024h12.337349v-18.506024h18.506024v-12.33735zM573.686747 320.771084h12.337349v-18.506024h18.506024v-12.337349h-18.506024v-18.506024h-12.337349v18.506024h-18.506024v12.337349h18.506024v18.506024z" p-id="4599"></path></svg>