<?xml version="1.0" standalone="no"?><!DOCTYPE svg PUBLIC "-//W3C//DTD SVG 1.1//EN" "http://www.w3.org/Graphics/SVG/1.1/DTD/svg11.dtd">
<svg t="1712718927298"
     class="icon"
     viewBox="0 0 1024 1024"
     version="1.1"
     xmlns="http://www.w3.org/2000/svg"
     p-id="2316"
     xmlns:xlink="http://www.w3.org/1999/xlink"
     width="64"
     height="64">
    <path
        d="M332.16 456h46.133333l65.6 120.64 22.613334 48.853333h1.546666c-2.133333-23.52-5.813333-53.333333-5.813333-79.093333v-90.666667h42.666667v226.24H459.2l-65.333333-120.586666-22.933334-48.586667h-1.493333c2.133333 24.426667 5.333333 52.853333 5.333333 78.773333v90.666667h-42.666666zM548.693333 635.84c0-36.64 29.6-55.84 98.613334-63.2-0.96-16.8-8.266667-29.6-29.333334-29.6-16 0-31.146667 7.04-47.04 16l-16-29.6a136.533333 136.533333 0 0 1 71.466667-22.613333c43.36 0 65.6 25.973333 65.6 75.466666v99.786667h-36.586667l-3.093333-18.293333h-1.226667c-14.933333 12.8-32 22.613333-51.573333 22.613333a48.586667 48.586667 0 0 1-50.826667-50.56z m98.613334-1.226667v-34.506666c-41.866667 5.333333-55.893333 16.8-55.893334 32 0 13.386667 9.493333 19.2 22.613334 19.2s22.293333-5.973333 33.28-16.64z"
        fill="#4D4D4D"
        p-id="2317"></path>
    <path
        d="M512 86.506667c44.853333 58.666667 155.68 211.733333 231.36 381.653333a266.186667 266.186667 0 0 1 24.16 108.906667 262.453333 262.453333 0 0 1-2.773333 37.813333c-7.893333 54.08-39.2 105.28-88.053334 144-47.68 37.866667-107.2 59.573333-163.413333 59.573333h-2.56c-56.213333 0-115.733333-21.706667-163.413333-59.573333-48.853333-38.826667-80-90.026667-88.053334-144a262.453333 262.453333 0 0 1-2.773333-37.813333 266.186667 266.186667 0 0 1 24.16-108.906667C356.32 298.24 467.146667 145.28 512 86.506667m0-44.586667a43.573333 43.573333 0 0 0-33.173333 17.813333C416 141.76 313.226667 290.08 241.653333 450.826667a301.12 301.12 0 0 0-24.64 170.24c20 136.64 158.773333 240 293.706667 240h2.56c134.933333 0 273.706667-103.52 293.706667-240a301.12 301.12 0 0 0-24.64-170.24C710.773333 290.08 608 141.76 545.226667 59.733333A43.573333 43.573333 0 0 0 512 41.92zM824.746667 972.853333c-46.08 0-69.92-16-90.986667-30.293333-19.093333-12.853333-34.186667-23.04-67.2-23.04s-48 10.186667-67.146667 23.04c-21.333333 14.186667-44.96 30.293333-91.04 30.293333s-69.92-16-90.986666-30.293333c-19.093333-12.853333-34.133333-23.04-67.2-23.04s-48 10.186667-67.146667 23.04c-21.333333 14.186667-44.96 30.293333-91.04 30.293333a21.333333 21.333333 0 0 1 0-42.666666c33.013333 0 48-10.133333 67.146667-22.986667 21.333333-14.24 44.96-30.346667 91.04-30.346667s69.973333 16 91.04 30.346667c19.093333 12.853333 34.133333 22.986667 67.146666 22.986667s48-10.133333 67.2-22.986667c21.333333-14.24 44.906667-30.346667 90.986667-30.346667s69.973333 16 91.04 30.346667c19.04 12.853333 34.133333 22.986667 67.146667 22.986667a21.333333 21.333333 0 0 1 0 42.666666z"
        fill="#4D4D4D"
        p-id="2318"></path>
</svg>